<svg width="173" height="151" xmlns="http://www.w3.org/2000/svg" xmlns:xlink="http://www.w3.org/1999/xlink" xml:space="preserve" overflow="hidden"><defs><clipPath id="clip0"><rect x="390" y="63" width="173" height="151"/></clipPath><clipPath id="clip1"><rect x="410" y="70" width="153" height="144"/></clipPath><clipPath id="clip2"><rect x="410" y="70" width="501" height="512"/></clipPath><clipPath id="clip3"><rect x="410" y="70" width="397" height="131"/></clipPath></defs><g clip-path="url(#clip0)" transform="translate(-390 -63)"><g clip-path="url(#clip1)"><g clip-path="url(#clip2)"><g clip-path="url(#clip3)"><path d="M159.93 66.6866 142.057 35.7298C140.02 32.1959 135.407 29.5319 131.326 29.5319L95.6559 29.5319C93.1563 29.5319 91.1225 30.5681 90.0786 32.3757 89.0346 34.1833 89.1526 36.4625 90.4014 38.6278L95.4839 47.4452 82.2046 47.4452C78.1254 47.4452 73.5128 50.1092 71.4732 53.6412L65.9036 63.286 61.7008 55.9958C58.1262 49.7979 58.1262 49.7979 56.4134 49.7979 54.7006 49.7979 54.7006 49.7979 51.1241 55.9939L33.2515 86.9506C31.2119 90.4826 31.2119 95.8106 33.2515 99.3426L51.126 130.299C54.7025 136.495 54.7025 136.495 56.4057 136.495 58.1069 136.495 58.1069 136.495 61.6872 130.303L65.9055 123.007 71.4752 132.652C73.5147 136.184 78.1274 138.848 82.2065 138.848L95.3273 138.848 90.3299 147.495C89.0791 149.661 88.9592 151.94 90.0012 153.745 91.0433 155.555 93.077 156.591 95.5767 156.591L131.264 156.591C135.343 156.591 139.958 153.927 141.995 150.395L159.831 119.504C161.08 117.339 161.2 115.058 160.156 113.252 159.114 111.443 157.08 110.406 154.581 110.404L144.246 110.397 150.629 99.3407C152.669 95.8086 152.669 90.4826 150.629 86.9487L144.213 75.8346 155.213 75.8423C155.238 75.8423 155.261 75.8423 155.286 75.8423 161.718 75.8423 161.724 75.8384 162.592 74.462L162.706 74.2667C163.47 72.8207 163.47 72.8207 159.93 66.6866ZM56.6647 127.399C56.5777 127.55 56.4927 127.699 56.4057 127.846 56.3206 127.699 56.2356 127.55 56.1466 127.399L38.272 96.4408C37.2764 94.7164 37.2764 91.5749 38.272 89.8485L56.1466 58.8918C56.2356 58.7371 56.3245 58.5844 56.4115 58.4336 56.4985 58.5844 56.5874 58.7371 56.6763 58.8918L62.5553 69.0857 52.2415 86.9506C50.202 90.4826 50.202 95.8106 52.2415 99.3407L62.5572 117.206 56.6647 127.399ZM57.264 96.4427C56.2684 94.7183 56.2684 91.5768 57.264 89.8524L65.9017 74.8912 74.5471 89.8833C75.5427 91.6097 75.5407 94.7512 74.5432 96.4756L65.9075 111.414 57.264 96.4427ZM76.4957 129.752 69.2539 117.211 79.5638 99.3774C81.6053 95.8454 81.6072 90.5193 79.5696 86.9854L69.2519 69.0876 76.4977 56.5391C76.5789 56.3979 76.6891 56.2607 76.7896 56.1234L98.1536 93.1775 76.7799 130.152C76.6813 130.021 76.575 129.889 76.4957 129.752ZM154.577 116.204C154.745 116.204 154.88 116.218 154.988 116.235 154.95 116.336 154.892 116.459 154.809 116.604L136.973 147.495C135.977 149.222 133.257 150.791 131.264 150.791L95.5767 150.791C95.4123 150.791 95.277 150.78 95.1726 150.762 95.2113 150.662 95.2673 150.54 95.3505 150.399L102.028 138.848 120.668 138.848C124.747 138.848 129.362 136.184 131.399 132.652L140.901 116.194 154.577 116.204ZM105.38 133.048 113.227 119.473C114.223 117.749 116.945 116.181 118.938 116.181L134.204 116.193 126.375 129.754C125.377 131.48 122.657 133.05 120.666 133.05L105.38 133.05ZM145.607 96.4427 137.551 110.395 118.934 110.381C114.857 110.381 110.244 113.041 108.203 116.57L98.6756 133.048 82.2026 133.048C82.0808 133.048 81.9494 133.025 81.8237 133.014L103.172 96.0812 145.757 96.1083C145.709 96.2204 145.666 96.3403 145.607 96.4427ZM145.607 89.8504C145.688 89.9916 145.752 90.154 145.819 90.3106L103.176 90.2835 81.8411 53.2777C81.961 53.2681 82.0886 53.2449 82.2046 53.2449L98.8283 53.2449 108.27 69.6193C110.308 73.1532 114.919 75.8191 118.998 75.821L137.514 75.8326 145.607 89.8504ZM105.523 53.2449 120.666 53.2449C122.657 53.2449 125.379 54.8146 126.375 56.541L134.164 70.033 119 70.0233C117.008 70.0233 114.286 68.4497 113.293 66.7233L105.523 53.2449ZM140.862 70.0368 131.397 53.6431C129.36 50.1092 124.747 47.4452 120.666 47.4452L102.181 47.4452 95.4259 35.7318C95.3427 35.5868 95.2847 35.4631 95.2461 35.3625 95.3524 35.3451 95.4877 35.3335 95.6559 35.3335L131.326 35.3335C133.317 35.3335 136.039 36.9033 137.035 38.6297L154.907 69.5864C154.996 69.7411 155.085 69.8957 155.172 70.0465L140.862 70.0368Z" fill="#6C63FF" transform="matrix(1 0 0 1.02003 378.278 40.8685)"/><path d="M20.7056 58.9893C21.784 58.9893 22.6827 59.3668 23.4016 60.1217 24.1206 60.8766 24.48 61.7932 24.48 62.8716L24.48 103.204C24.48 104.211 24.1206 105.092 23.4016 105.846 22.6827 106.601 21.784 106.979 20.7056 106.979L12.5096 106.979C11.5031 106.979 10.6224 106.601 9.8675 105.846 9.11261 105.092 8.73517 104.211 8.73517 103.204L8.73517 62.8716C8.73517 61.7932 9.11261 60.8766 9.8675 60.1217 10.6224 59.3668 11.5031 58.9893 12.5096 58.9893L20.7056 58.9893ZM20.7056 26.9604C21.784 26.9604 22.6827 27.3378 23.4016 28.0927 24.1206 28.8476 24.48 29.7283 24.48 30.7348L24.48 50.6855C24.48 51.7639 24.1206 52.6806 23.4016 53.4355 22.6827 54.1904 21.784 54.5678 20.7056 54.5678L12.5096 54.5678C11.5031 54.5678 10.6224 54.1904 9.8675 53.4355 9.11261 52.6806 8.73517 51.764 8.73517 50.6855L8.73517 30.7348C8.73517 29.7283 9.11261 28.8476 9.8675 28.0927 10.6224 27.3378 11.5031 26.9604 12.5096 26.9604L20.7056 26.9604ZM118.777 28.6859C119.568 29.7643 119.711 30.9505 119.208 32.2446L89.6595 105.253C89.3719 105.972 88.9046 106.547 88.2575 106.979 87.6105 107.41 86.8915 107.626 86.1007 107.626L76.6106 107.626C75.8198 107.626 75.1009 107.41 74.4538 106.979 73.8068 106.547 73.3394 105.972 73.0519 105.253L43.5033 32.2446C42.9281 31.0224 43.036 29.8362 43.8268 28.6859 44.6176 27.5355 45.6601 26.9604 46.9542 26.9604L82.9733 26.9604C83.9798 26.9604 84.8605 27.3378 85.6154 28.0927 86.3703 28.8476 86.7477 29.7643 86.7477 30.8427L86.7477 38.7151C86.7477 39.7935 86.3703 40.7102 85.6154 41.4651 84.8605 42.22 83.9798 42.5974 82.9733 42.5974L64.8559 42.5974 81.3557 84.1164 103.032 29.3329C103.319 28.614 103.787 28.0388 104.434 27.6074 105.081 27.1761 105.8 26.9604 106.591 26.9604L115.649 26.9604C116.296 26.9604 116.907 27.1222 117.483 27.4457 118.058 27.7692 118.489 28.1826 118.777 28.6859ZM190.858 66.9696C193.949 68.9108 196.304 71.2833 197.922 74.0872 199.539 76.891 200.348 80.0184 200.348 83.4694 200.348 91.5934 197.257 97.8123 191.074 102.126 186.904 105.146 181.26 107.051 174.143 107.842L173.711 107.842C172.705 107.842 171.878 107.518 171.231 106.871 170.368 106.08 169.937 105.146 169.937 104.067L169.937 96.3025C169.937 95.3679 170.26 94.5411 170.907 93.8222 171.554 93.1032 172.345 92.6718 173.28 92.5281 176.659 92.1686 179.283 91.3777 181.152 90.1555 182.59 89.2928 183.561 88.1784 184.064 86.8125 184.352 86.0216 184.495 85.0151 184.495 83.7929 184.495 83.0021 184.352 82.3191 184.064 81.7439 183.776 81.1687 183.273 80.6295 182.554 80.1263 180.469 78.6884 177.773 77.4662 174.466 76.4597L172.741 75.9205C169.146 74.9139 165.839 74.0872 162.819 73.4401 162.172 73.2963 161.13 73.0447 159.692 72.6852L158.506 72.3617C155.917 71.7146 153.185 70.816 150.31 69.6656 146.068 67.8683 142.581 65.6036 139.849 62.8716 136.686 59.7083 135.104 55.5384 135.104 50.362 135.104 43.2445 137.836 37.457 143.3 32.9995 147.038 29.8362 152.287 27.8231 159.045 26.9604 160.195 26.8166 161.184 27.1401 162.01 27.931 162.837 28.7218 163.251 29.6564 163.251 30.7348L163.251 38.4994C163.251 39.4341 162.963 40.2608 162.388 40.9798 161.813 41.6987 161.076 42.1121 160.177 42.22 159.278 42.3278 158.362 42.5255 157.427 42.8131 155.342 43.6039 153.868 44.3768 153.006 45.1317 152.143 45.8866 151.532 46.6595 151.172 47.4503 150.813 48.6725 150.633 49.8228 150.633 50.9012 150.633 51.4764 150.957 52.0875 151.604 52.7345 152.61 53.741 154.084 54.6397 156.025 55.4306 156.888 55.79 158.398 56.3292 160.555 57.0482L174.035 60.3913 174.682 60.607C178.061 61.5416 180.505 62.2605 182.015 62.7638 185.394 63.9141 188.342 65.316 190.858 66.9696ZM172.848 42.5974C171.986 42.3817 171.285 41.9324 170.746 41.2494 170.206 40.5664 169.937 39.7576 169.937 38.823L169.937 30.9505C169.937 29.8002 170.404 28.8296 171.339 28.0388 171.698 27.6793 172.165 27.4457 172.741 27.3378 173.316 27.23 173.855 27.212 174.358 27.2839 180.685 28.2904 185.825 30.4473 189.78 33.7544 195.172 38.2119 198.047 43.8915 198.407 50.7934 198.479 51.7999 198.137 52.7165 197.382 53.5433 196.628 54.3701 195.711 54.7835 194.632 54.7835L186.221 54.7835C185.286 54.7835 184.459 54.46 183.74 53.8129 183.021 53.1659 182.626 52.375 182.554 51.4404 182.267 49.5712 181.656 48.0254 180.721 46.8032 179.211 45.0059 176.875 43.6399 173.711 42.7053 173.495 42.7053 173.352 42.6693 173.28 42.5974L172.848 42.5974ZM160.231 92.0967C161.094 92.2405 161.813 92.6718 162.388 93.3908 162.963 94.1097 163.251 94.9006 163.251 95.7633L163.251 103.744C163.251 104.894 162.819 105.864 161.956 106.655 161.238 107.23 160.411 107.518 159.476 107.518L158.937 107.518C152.251 106.512 146.751 104.319 142.437 100.94 136.829 96.4822 133.666 90.2634 132.947 82.2831 132.803 81.1328 133.127 80.1443 133.918 79.3175 134.708 78.4907 135.643 78.0773 136.722 78.0773L145.241 78.0773C146.248 78.0773 147.11 78.4188 147.829 79.1018 148.548 79.7848 148.944 80.6295 149.015 81.6361 149.231 85.2308 150.993 87.9987 154.3 89.9399 155.809 90.8026 157.787 91.5215 160.231 92.0967Z" fill="#FFFFFF" transform="matrix(1 0 0 1.02003 605.652 69.5855)"/></g></g></g></g></svg>